<svg width="680" height="272" viewBox="0 0 680 272" fill="none" xmlns="http://www.w3.org/2000/svg">
<g clip-path="url(#clip0_50_44)">
<path d="M51.4448 14.6479V167.009C51.4448 175.083 59.6848 181.657 69.8264 181.657H227.846V175.804H69.8264C63.7532 175.804 58.8004 171.862 58.8004 167.009C58.8004 162.156 63.7532 158.214 69.8264 158.214H227.846V0H69.8264C59.6848 0 51.4448 6.57388 51.4448 14.6479ZM220.49 152.361H69.8264C65.699 152.361 61.8812 153.464 58.8004 155.303V14.6479C58.8004 9.79465 63.7532 5.85326 69.8264 5.85326H220.49V152.361Z" fill="#6814CA"/>
<path d="M227.846 164.082H220.49V169.936H227.846V164.082Z" fill="#6814CA"/>
<path d="M213.149 164.082H73.4966V169.936H213.149V164.082Z" fill="#6814CA"/>
<path d="M0 25.4279V164.082C0 173.774 9.89096 181.657 22.052 181.657C34.213 181.657 44.104 173.774 44.104 164.082V25.4279L22.052 0.823578L0 25.4279ZM22.052 10.8977L33.2843 23.4424H10.8196L22.052 10.8977ZM36.7484 146.508V152.361H7.35557V146.508H36.7484ZM7.35557 140.64V29.2957H18.3816V128.919H25.7371V29.2957H36.7631V140.64H25.7371V134.787H18.3816V140.64H7.35557ZM7.35557 164.082V158.229H36.7484V164.082C36.7484 170.553 30.1593 175.804 22.052 175.804C13.9446 175.804 7.35557 170.539 7.35557 164.082Z" fill="#6814CA"/>
<path d="M151.003 113.271H78.3613V86.2841L136.498 29.6192H189.712V85.0928H207.342V113.271H189.712V129.081H151.003V113.271ZM151.003 55.5618L120.652 85.0928H150.988V55.5618H151.003Z" fill="white"/>
<path d="M252.699 60.8415C253.126 58.0031 253.436 55.4442 253.627 53.1794H284.332C284.244 54.5912 284.096 56.2236 283.905 58.0767C283.713 59.915 283.521 61.5033 283.33 62.8269H283.905C286.086 59.7974 289.138 57.1502 293.073 54.8853C297.009 52.6205 301.343 51.4881 306.075 51.4881C310.246 51.4881 313.769 52.1058 316.673 53.3264C319.562 54.5618 321.935 56.1942 323.778 58.2237C325.621 60.2533 326.947 62.6063 327.758 65.2388C328.569 67.886 328.967 70.6362 328.967 73.4599C328.967 74.9747 328.893 76.563 328.76 78.2101C328.613 79.872 328.407 81.4456 328.126 82.9604L320.314 127.786H288.327L295.299 88.2107C295.491 87.3577 295.609 86.49 295.653 85.5929C295.697 84.6958 295.727 83.9604 295.727 83.3869C295.727 81.4897 295.211 79.9602 294.164 78.7837C293.117 77.6071 291.467 77.0042 289.182 77.0042C287 77.0042 285.084 77.9748 283.418 79.9161C281.752 81.8574 280.603 84.6664 279.939 88.3577L272.834 127.786H240.995L251.519 67.7831C251.873 66.0036 252.271 63.6799 252.699 60.8415Z" fill="white"/>
<path d="M374.898 130.066C369.208 130.066 363.902 129.36 358.978 127.933C354.055 126.522 349.736 124.389 346.036 121.551C342.336 118.712 339.447 115.212 337.369 111.05C335.275 106.888 334.244 102.108 334.244 96.7258C334.244 90.4902 335.29 84.5781 337.369 78.9896C339.447 73.4157 342.469 68.5478 346.39 64.3858C350.326 60.2238 355.161 56.9443 360.895 54.5324C366.629 52.1205 373.188 50.9145 380.588 50.9145C386.367 50.9145 391.776 51.6204 396.803 53.047C401.829 54.4588 406.193 56.5913 409.878 59.4297C413.578 62.2681 416.482 65.7683 418.619 69.9303C420.756 74.0922 421.818 78.8719 421.818 84.2546C421.818 90.4902 420.771 96.4023 418.693 101.991C416.6 107.565 413.578 112.447 409.598 116.595C405.618 120.757 400.709 124.036 394.887 126.448C389.049 128.86 382.387 130.066 374.898 130.066ZM390.818 87.6518C390.818 84.6222 389.875 82.078 387.973 79.9896C386.072 77.916 383.286 76.8718 379.586 76.8718C377.404 76.8718 375.444 77.3277 373.69 78.2248C371.935 79.1219 370.417 80.3132 369.135 81.7691C367.852 83.2398 366.879 84.9605 366.216 86.9459C365.553 88.9313 365.228 91.0196 365.228 93.1815C365.228 96.2993 366.172 98.873 368.073 100.917C369.975 102.947 372.717 103.962 376.313 103.962C378.583 103.962 380.632 103.535 382.431 102.682C384.229 101.829 385.747 100.653 386.986 99.1377C388.209 97.6229 389.167 95.9022 389.831 93.961C390.494 92.0197 390.818 89.9166 390.818 87.6518Z" fill="white"/>
<path d="M465.892 130.066C460.203 130.066 454.896 129.36 449.973 127.933C445.049 126.522 440.73 124.389 437.03 121.551C433.33 118.712 430.441 115.212 428.363 111.05C426.27 106.888 425.238 102.108 425.238 96.7258C425.238 90.4902 426.284 84.5781 428.363 78.9896C430.441 73.4157 433.463 68.5478 437.384 64.3858C441.32 60.2238 446.155 56.9443 451.889 54.5324C457.623 52.1205 464.183 50.9145 471.582 50.9145C477.361 50.9145 482.77 51.6204 487.797 53.047C492.824 54.4588 497.187 56.5913 500.872 59.4297C504.572 62.2681 507.476 65.7683 509.613 69.9303C511.751 74.0922 512.812 78.8719 512.812 84.2546C512.812 90.4902 511.765 96.4023 509.687 101.991C507.594 107.565 504.572 112.447 500.592 116.595C496.612 120.757 491.703 124.036 485.881 126.448C480.029 128.86 473.381 130.066 465.892 130.066ZM481.812 87.6518C481.812 84.6222 480.869 82.078 478.967 79.9896C477.066 77.916 474.28 76.8718 470.58 76.8718C468.398 76.8718 466.438 77.3277 464.684 78.2248C462.93 79.1219 461.411 80.3132 460.129 81.7691C458.846 83.2398 457.874 84.9605 457.21 86.9459C456.547 88.9313 456.223 91.0196 456.223 93.1815C456.223 96.2993 457.166 98.873 459.068 100.917C460.969 102.947 463.711 103.962 467.308 103.962C469.578 103.962 471.627 103.535 473.425 102.682C475.223 101.829 476.742 100.653 477.98 99.1377C479.203 97.6229 480.161 95.9022 480.825 93.961C481.473 92.0197 481.812 89.9166 481.812 87.6518Z" fill="white"/>
<path d="M577.921 51.4734C582.845 51.4734 587.178 52.2969 590.922 53.9588C594.667 55.6207 597.821 57.8855 600.371 60.768C602.936 63.6505 604.852 67.033 606.135 70.9156C607.417 74.7982 608.051 78.9602 608.051 83.4016C608.051 89.7402 607.004 95.7258 604.926 101.344C602.833 106.976 599.929 111.859 596.185 116.021C592.441 120.183 588.033 123.492 582.962 125.948C577.892 128.404 572.364 129.639 566.394 129.639C561.559 129.639 557.196 128.742 553.319 126.948C549.428 125.154 546.494 122.786 544.504 119.859H544.224L542.809 127.801H514.094L533.006 20.5599H564.846L558.021 59.7091H558.301C560.571 57.2531 563.49 55.2677 567.043 53.7529C570.595 52.2381 574.221 51.4734 577.921 51.4734ZM577.066 87.6518C577.066 84.6222 576.093 82.078 574.148 79.9896C572.202 77.916 569.386 76.8718 565.686 76.8718C563.505 76.8718 561.544 77.3277 559.79 78.2248C558.036 79.1219 556.518 80.3132 555.235 81.7691C553.953 83.2398 552.965 84.9605 552.243 86.9459C551.521 88.9313 551.182 91.0196 551.182 93.1815C551.182 96.2993 552.155 98.873 554.1 100.917C556.046 102.947 558.817 103.962 562.414 103.962C564.684 103.962 566.733 103.535 568.531 102.682C570.33 101.829 571.878 100.653 573.145 99.1377C574.428 97.6229 575.4 95.9023 576.064 93.961C576.727 92.0197 577.066 89.9166 577.066 87.6518Z" fill="white"/>
<path d="M620.005 100.844C622.467 103.3 625.312 105.153 628.54 106.373C631.769 107.609 634.746 108.212 637.503 108.212C639.404 108.212 640.893 107.947 641.984 107.432C643.075 106.918 643.62 106.079 643.62 104.947C643.62 103.814 642.883 102.873 641.409 102.108C639.935 101.358 638.063 100.638 635.793 99.976C632.476 99.0348 629.513 97.9465 626.904 96.7111C624.295 95.4905 622.069 94.0198 620.227 92.3138C618.384 90.6078 616.954 88.6224 615.967 86.3576C614.979 84.0928 614.478 81.4456 614.478 78.416C614.478 73.7834 615.495 69.7097 617.529 66.2242C619.563 62.724 622.261 59.8415 625.636 57.5766C628.997 55.3118 632.786 53.6058 637.016 52.4734C641.232 51.341 645.477 50.7675 649.737 50.7675C655.619 50.7675 661.279 51.591 666.733 53.2529C672.187 54.9 676.61 57.2531 680.029 60.268L663.682 78.9896C662.075 77.2836 659.849 75.8423 657.004 74.6658C654.16 73.4893 651.359 72.8863 648.617 72.8863C646.716 72.8863 645.183 73.151 644.003 73.6658C642.824 74.1805 642.22 75.0188 642.22 76.1512C642.22 77.0924 642.721 77.8277 643.708 78.3572C644.696 78.8719 646.435 79.4749 648.897 80.1367C652.405 80.9897 655.604 82.0486 658.493 83.328C661.382 84.6075 663.874 86.137 665.952 87.9312C668.03 89.7254 669.652 91.8579 670.787 94.3139C671.922 96.7699 672.497 99.6525 672.497 102.961C672.497 107.976 671.377 112.227 669.151 115.727C666.925 119.227 664.08 122.065 660.616 124.242C657.152 126.419 653.319 127.978 649.104 128.919C644.888 129.86 640.731 130.331 636.662 130.331C631.253 130.331 625.577 129.566 619.608 128.066C613.638 126.551 608.375 123.904 603.82 120.124L620.005 100.844Z" fill="white"/>
<path d="M302.23 138.663C298.01 139.197 294.505 141.636 292.703 145.295C291.884 146.955 291.534 148.323 291.462 150.193C291.356 153.092 292.136 155.635 293.856 157.942C294.205 158.412 295.942 160.21 298.896 163.165C301.371 165.65 303.44 167.683 303.489 167.683C303.53 167.683 309.867 161.4 317.56 153.724L331.543 139.774L330.798 139.474C327.211 138.04 322.982 138.446 319.785 140.527C319.387 140.778 318.892 141.134 318.665 141.312C318.445 141.49 314.932 144.948 310.874 148.996L303.482 156.356L301.859 154.711C300.423 153.263 300.195 152.995 299.935 152.461C299.351 151.263 299.343 150.129 299.919 148.907C300.463 147.765 301.655 146.899 302.963 146.705C304.002 146.543 305.236 146.892 306.014 147.555L306.347 147.839L309.204 144.981L312.068 142.124L311.549 141.662C310.047 140.31 308.019 139.297 305.926 138.86C305.127 138.696 302.927 138.575 302.23 138.663Z" fill="#6814CA"/>
<path d="M350.516 156.55V169.059H353.843H357.17L357.186 164.176L357.211 159.303L361.821 159.278L366.423 159.262V164.16V169.059H369.75H373.077V156.55V144.04H369.75H366.423V148.615V153.191H361.797H357.172V148.615V144.04H353.845H350.518V156.55H350.516Z" fill="#BCBBBC"/>
<path d="M401.367 152.921L396.287 160.419V162.67V164.929L401.586 164.946L406.878 164.971L406.903 167.011L406.92 169.059H409.8H412.68L412.696 167.011L412.721 164.971L413.923 164.946L415.115 164.921V162.419V159.917L413.923 159.892L412.721 159.867L412.696 152.638L412.68 145.415H409.564H406.448L401.367 152.921ZM406.9 156.404L406.875 159.869L404.498 159.894C403.013 159.901 402.127 159.887 402.144 159.837C402.201 159.666 406.802 152.954 406.859 152.947C406.893 152.947 406.909 154.501 406.9 156.404Z" fill="#BCBBBC"/>
<path d="M331.729 150.923L326.291 156.348L324.872 154.932L323.452 153.516L320.628 156.333C319.077 157.881 317.812 159.184 317.812 159.223C317.812 159.272 318.437 159.928 319.192 160.681L320.572 162.057L314.875 167.741L309.17 173.433L312.034 176.283L314.891 179.141L324.962 169.1C330.497 163.578 335.259 158.785 335.537 158.453C338.157 155.319 339.034 151.182 337.898 147.239C337.743 146.721 337.266 145.498 337.208 145.498C337.183 145.498 334.715 147.934 331.729 150.923Z" fill="#6814CA"/>
<path d="M435.32 148.979V151.408H434.022H432.723V153.877V156.347H434.022H435.32V159.52C435.32 163.431 435.459 164.646 436.027 166.013C436.74 167.722 438.258 168.993 440.133 169.462C441.675 169.843 443.768 169.827 445.189 169.414C446.342 169.081 447.632 168.458 448.298 167.916L448.485 167.762L447.293 165.884C446.635 164.847 446.068 163.965 446.035 163.932C446.003 163.891 445.8 163.981 445.581 164.11C444.94 164.524 444.396 164.685 443.699 164.685C442.741 164.678 442.181 164.353 441.84 163.593C441.71 163.302 441.694 162.937 441.669 159.804L441.644 156.347H443.835H446.034V153.877V151.408H443.843H441.653V148.979V146.549H438.488H435.323V148.979H435.32Z" fill="#BCBBBC"/>
<path d="M384.21 150.93C381.671 151.254 379.397 152.647 378.043 154.711C376.64 156.841 376.128 159.634 376.614 162.532C377.279 166.475 379.983 168.928 384.356 169.552C385.387 169.697 387.806 169.674 388.778 169.511C390.443 169.227 392.066 168.733 393.226 168.15C393.761 167.883 393.851 167.811 393.809 167.681C393.777 167.591 393.339 166.661 392.828 165.609C392.219 164.346 391.87 163.715 391.797 163.738C391.749 163.763 391.408 163.916 391.051 164.071C389.567 164.718 388.195 164.969 386.466 164.913C385.581 164.881 385.248 164.832 384.713 164.654C383.974 164.419 383.277 163.957 382.951 163.497C382.724 163.165 382.489 162.574 382.489 162.331C382.489 162.185 382.676 162.176 388.453 162.176H394.417V161.262C394.417 157.522 393.491 154.889 391.511 153.02C390.326 151.895 388.907 151.23 387.122 150.964C386.289 150.833 385.039 150.817 384.21 150.93ZM386.75 155.756C387.741 156.095 388.584 157.058 388.714 158.007L388.762 158.372H385.615H382.466L382.524 158.023C382.711 156.841 383.749 155.838 385.008 155.626C385.534 155.545 386.296 155.594 386.75 155.756Z" fill="#BCBBBC"/>
<path d="M427.984 151.295C427.132 151.498 426.426 151.935 425.565 152.794C425.07 153.288 424.769 153.53 424.762 153.45C424.762 153.369 424.713 152.891 424.664 152.38L424.567 151.449L421.507 151.424L418.439 151.408V160.234V169.059H421.597H424.762L424.787 164.5C424.819 160.5 424.835 159.892 424.958 159.464C425.396 157.958 426.264 157.083 427.692 156.744C428.227 156.622 429.583 156.614 430.241 156.744C430.509 156.792 430.736 156.817 430.752 156.808C430.801 156.76 431.597 151.473 431.565 151.441C431.548 151.416 431.28 151.351 430.972 151.286C430.264 151.133 428.625 151.14 427.984 151.295Z" fill="#BCBBBC"/>
<path d="M462.02 155.132C462.02 156.645 462.004 157.885 461.979 157.885C461.954 157.885 461.629 157.756 461.256 157.601C459.008 156.678 456.225 157.301 454.602 159.107C453.417 160.419 452.89 162.232 453.093 164.256C453.394 167.155 455.081 169.065 457.63 169.381C459.098 169.568 460.478 169.122 461.542 168.111L462.005 167.674L462.063 168.371L462.12 169.059H463.208H464.296V160.719V152.379H463.159H462.023V155.132H462.02ZM460.518 159.31C460.786 159.375 461.231 159.562 461.508 159.715L462.02 159.998V162.241C462.02 164.662 461.971 165.034 461.582 165.812C461.306 166.338 460.737 166.897 460.17 167.172C459.739 167.383 459.635 167.399 458.734 167.399C457.792 167.399 457.736 167.39 457.216 167.131C456.924 166.986 456.551 166.727 456.387 166.549C455.276 165.318 455.024 162.832 455.852 161.206C456.306 160.307 457.054 159.651 458.003 159.328C458.531 159.141 459.853 159.132 460.518 159.31Z" fill="#BCBBBC"/>
<path d="M471.693 157.164C470.5 157.351 469.502 157.869 468.544 158.825C467.789 159.57 467.335 160.379 467.042 161.488C466.79 162.412 466.79 163.966 467.035 164.953C467.579 167.155 469.056 168.661 471.23 169.228C472.22 169.487 473.795 169.471 474.874 169.187C475.945 168.912 476.902 168.434 477.536 167.852L478.039 167.382L477.439 166.727C477.105 166.362 476.806 166.063 476.781 166.063C476.749 166.063 476.554 166.202 476.351 166.371C474.955 167.521 472.82 167.828 471.295 167.107C470.216 166.597 469.306 165.424 469.185 164.379L469.137 163.959H473.746H478.355L478.307 163.206C478.103 160.129 476.554 157.886 474.216 157.288C473.577 157.116 472.359 157.06 471.693 157.164ZM473.82 159.181C474.745 159.472 475.581 160.403 475.864 161.479C475.929 161.706 475.978 161.973 475.978 162.07V162.257H472.561H469.137L469.185 161.901C469.364 160.631 470.313 159.553 471.637 159.132C472.156 158.97 473.202 158.994 473.82 159.181Z" fill="#BCBBBC"/>
<path d="M495.925 157.157C494.448 157.425 493.295 158.161 492.735 159.181C492.508 159.601 492.492 159.682 492.492 160.516C492.492 161.325 492.508 161.447 492.719 161.867C493.011 162.459 493.701 163.09 494.439 163.438C494.756 163.593 495.648 163.875 496.428 164.078C498.108 164.507 498.74 164.757 499.106 165.131C499.511 165.552 499.569 166.24 499.228 166.759C498.953 167.188 497.881 167.519 496.802 167.519C495.649 167.512 494.635 167.187 493.774 166.54L493.279 166.159L492.614 166.88C492.2 167.325 491.966 167.649 491.998 167.722C492.063 167.893 492.956 168.531 493.459 168.766C494.878 169.438 497.143 169.617 498.816 169.18C499.505 169.002 500.383 168.516 500.837 168.071C501.064 167.844 501.332 167.456 501.478 167.14C501.705 166.655 501.737 166.525 501.73 165.869C501.73 165.303 501.681 165.019 501.543 164.647C501.161 163.668 500.098 162.906 498.499 162.469C498.101 162.356 497.387 162.169 496.924 162.04C495.732 161.723 494.977 161.335 494.783 160.938C494.547 160.485 494.653 159.966 495.042 159.578C495.456 159.164 496.065 158.995 497.119 159.003C498.101 159.003 498.953 159.254 499.7 159.756C499.968 159.926 500.195 160.072 500.203 160.072C500.268 160.072 501.379 158.623 501.379 158.55C501.379 158.323 499.983 157.57 499.09 157.319C498.425 157.125 496.591 157.035 495.925 157.157Z" fill="#BCBBBC"/>
<path d="M478.98 157.52C478.98 157.536 480.092 160.135 481.448 163.285L483.923 169.018L485.083 169.043L486.243 169.059L488.653 163.416C489.976 160.307 491.088 157.7 491.121 157.619C491.17 157.489 491.08 157.48 489.961 157.48H488.743L486.965 161.966C485.991 164.435 485.164 166.427 485.139 166.403C485.114 166.371 484.294 164.354 483.313 161.909L481.544 157.48H480.261C479.557 157.48 478.98 157.497 478.98 157.52Z" fill="#BCBBBC"/>
<path d="M262 160.303C262 163.2 261.352 165.509 260.054 167.215C258.757 168.921 256.974 169.789 254.704 169.789C252.522 169.789 250.812 168.994 249.589 167.421L249.382 169.436H245.579V142.964H249.78V152.582C250.989 151.155 252.625 150.449 254.674 150.449C256.959 150.449 258.742 151.288 260.04 152.979C261.337 154.67 261.985 157.023 261.985 160.067V160.303H262ZM257.799 159.935C257.799 157.906 257.445 156.391 256.723 155.391C256.001 154.391 254.969 153.876 253.613 153.876C251.8 153.876 250.517 154.67 249.78 156.258V163.95C250.532 165.568 251.814 166.377 253.642 166.377C254.954 166.377 255.971 165.891 256.679 164.906C257.386 163.921 257.755 162.45 257.784 160.479V159.935H257.799Z" fill="#B4B3B4"/>
<path d="M272.053 163.435L275.857 150.788H280.338L272.908 172.259C271.773 175.392 269.828 176.965 267.101 176.965C266.496 176.965 265.818 176.863 265.081 176.657V173.406L265.877 173.465C266.938 173.465 267.735 173.274 268.265 172.892C268.796 172.509 269.223 171.862 269.533 170.95L270.137 169.347L263.578 150.802H268.103L272.053 163.435Z" fill="#B4B3B4"/>
<path d="M57.2524 249.543V227.865H62.279C63.7973 227.88 65.1387 228.145 66.3327 228.63C67.5267 229.115 68.529 229.807 69.3398 230.689C70.1652 231.571 70.7843 232.616 71.2266 233.851C71.6688 235.086 71.8751 236.439 71.8899 237.925V239.513C71.8751 240.998 71.654 242.366 71.2266 243.587C70.7991 244.807 70.1652 245.866 69.3398 246.749C68.5143 247.631 67.5119 248.308 66.3327 248.808C65.1534 249.308 63.7973 249.543 62.279 249.558H57.2524V249.543ZM60.0532 230.13V247.293H62.279C63.4582 247.278 64.4606 247.072 65.3156 246.675C66.1705 246.278 66.8781 245.719 67.4382 245.028C67.9984 244.337 68.4111 243.513 68.6912 242.572C68.9712 241.631 69.1039 240.601 69.1186 239.498V237.881C69.1039 236.778 68.9712 235.763 68.6912 234.822C68.4111 233.88 67.9984 233.071 67.4382 232.38C66.8781 231.689 66.1705 231.145 65.3156 230.748C64.4606 230.351 63.4435 230.145 62.279 230.13H60.0532Z" fill="white"/>
<path d="M85.6282 243.94H78.3758L76.6364 249.558H73.8799L80.8964 227.88H83.2107L90.1093 249.558H87.3676L85.6282 243.94ZM79.1275 241.542H84.9059L82.0462 232.13L79.1275 241.542Z" fill="white"/>
<path d="M124.779 243.028C124.647 244.028 124.396 244.954 123.998 245.793C123.6 246.631 123.099 247.352 122.48 247.955C121.861 248.558 121.124 249.028 120.269 249.352C119.414 249.69 118.47 249.852 117.424 249.852C116.525 249.852 115.714 249.719 114.992 249.469C114.255 249.219 113.606 248.866 113.031 248.425C112.456 247.984 111.97 247.455 111.557 246.852C111.144 246.249 110.805 245.587 110.525 244.866C110.245 244.146 110.053 243.396 109.921 242.616C109.788 241.837 109.714 241.042 109.7 240.234V237.219C109.714 236.41 109.788 235.616 109.921 234.836C110.053 234.057 110.26 233.307 110.525 232.586C110.805 231.865 111.144 231.204 111.557 230.601C111.97 229.983 112.456 229.468 113.031 229.012C113.606 228.571 114.255 228.218 114.977 227.968C115.699 227.718 116.525 227.586 117.424 227.586C118.515 227.586 119.473 227.748 120.328 228.086C121.183 228.424 121.92 228.895 122.539 229.498C123.158 230.101 123.644 230.836 124.028 231.689C124.396 232.542 124.647 233.483 124.765 234.513H122.008C121.92 233.851 121.758 233.248 121.551 232.674C121.345 232.101 121.035 231.615 120.667 231.189C120.298 230.762 119.856 230.424 119.311 230.189C118.78 229.939 118.146 229.821 117.424 229.821C116.76 229.821 116.186 229.924 115.684 230.145C115.183 230.365 114.756 230.645 114.387 231.012C114.019 231.38 113.724 231.807 113.473 232.292C113.223 232.777 113.031 233.292 112.884 233.836C112.736 234.38 112.633 234.939 112.559 235.513C112.5 236.086 112.456 236.63 112.456 237.175V240.234C112.456 240.763 112.486 241.322 112.559 241.895C112.618 242.469 112.736 243.028 112.884 243.572C113.031 244.116 113.223 244.646 113.459 245.131C113.694 245.616 114.004 246.043 114.372 246.425C114.741 246.793 115.168 247.087 115.67 247.307C116.171 247.513 116.746 247.631 117.409 247.631C118.131 247.631 118.765 247.513 119.296 247.293C119.827 247.057 120.283 246.749 120.652 246.337C121.021 245.925 121.315 245.44 121.536 244.881C121.758 244.322 121.905 243.719 121.993 243.057H124.779V243.028Z" fill="white"/>
<path d="M142.571 239.954C142.556 240.734 142.497 241.513 142.365 242.293C142.247 243.087 142.055 243.837 141.79 244.572C141.525 245.307 141.2 245.984 140.802 246.631C140.404 247.263 139.918 247.822 139.358 248.293C138.798 248.763 138.164 249.146 137.441 249.411C136.719 249.675 135.908 249.822 135.024 249.822C134.14 249.822 133.314 249.69 132.606 249.411C131.884 249.131 131.25 248.763 130.69 248.293C130.13 247.822 129.644 247.263 129.246 246.616C128.833 245.969 128.509 245.293 128.243 244.557C127.978 243.822 127.786 243.072 127.654 242.278C127.521 241.498 127.462 240.719 127.447 239.939V237.469C127.462 236.689 127.521 235.91 127.654 235.13C127.772 234.336 127.978 233.586 128.229 232.851C128.494 232.115 128.833 231.424 129.231 230.792C129.629 230.159 130.115 229.586 130.675 229.115C131.236 228.63 131.869 228.262 132.592 227.983C133.314 227.703 134.125 227.571 135.024 227.571C135.923 227.571 136.734 227.703 137.456 227.983C138.178 228.262 138.827 228.63 139.387 229.101C139.947 229.571 140.419 230.13 140.832 230.777C141.23 231.424 141.569 232.101 141.834 232.836C142.099 233.571 142.291 234.336 142.424 235.13C142.542 235.925 142.615 236.704 142.63 237.483V239.954H142.571ZM139.829 237.454C139.815 236.939 139.785 236.395 139.726 235.836C139.667 235.277 139.564 234.719 139.417 234.174C139.269 233.616 139.078 233.101 138.842 232.601C138.606 232.101 138.311 231.66 137.943 231.277C137.589 230.895 137.161 230.586 136.675 230.365C136.188 230.145 135.614 230.027 134.98 230.027C134.346 230.027 133.786 230.145 133.299 230.365C132.813 230.586 132.385 230.895 132.032 231.277C131.678 231.66 131.368 232.101 131.132 232.601C130.897 233.101 130.705 233.63 130.558 234.174C130.41 234.733 130.307 235.277 130.248 235.836C130.189 236.395 130.145 236.925 130.13 237.439V239.939C130.145 240.439 130.174 240.984 130.248 241.542C130.322 242.101 130.425 242.66 130.572 243.219C130.72 243.763 130.911 244.293 131.147 244.807C131.383 245.307 131.678 245.763 132.046 246.146C132.4 246.528 132.828 246.837 133.314 247.057C133.8 247.278 134.375 247.396 135.009 247.396C135.643 247.396 136.218 247.278 136.719 247.057C137.22 246.837 137.633 246.528 137.987 246.146C138.341 245.763 138.635 245.322 138.871 244.822C139.107 244.322 139.299 243.793 139.431 243.248C139.579 242.704 139.682 242.145 139.726 241.572C139.785 241.013 139.815 240.469 139.829 239.954V237.454Z" fill="white"/>
<path d="M149.19 227.865L152.728 238.704L156.545 227.865H159.98V249.543H157.297V240.895L157.518 231.851L153.509 243.513H151.932L148.246 232.16L148.467 240.895V249.543H145.785V227.865H149.19Z" fill="white"/>
<path d="M177.521 227.865L177.551 242.543C177.536 243.557 177.344 244.499 177.005 245.381C176.666 246.263 176.165 247.043 175.546 247.69C174.912 248.352 174.175 248.866 173.305 249.249C172.436 249.631 171.492 249.822 170.46 249.822C169.399 249.822 168.441 249.631 167.586 249.263C166.716 248.881 165.979 248.366 165.36 247.705C164.741 247.043 164.254 246.278 163.915 245.381C163.562 244.499 163.385 243.543 163.385 242.528L163.414 227.851H166.038L166.097 242.528C166.112 243.175 166.215 243.793 166.407 244.381C166.598 244.984 166.878 245.499 167.247 245.954C167.615 246.41 168.058 246.778 168.603 247.057C169.148 247.337 169.767 247.469 170.475 247.469C171.183 247.469 171.802 247.337 172.347 247.057C172.878 246.778 173.335 246.41 173.703 245.954C174.072 245.499 174.337 244.969 174.529 244.366C174.72 243.778 174.824 243.145 174.838 242.513L174.882 227.836H177.521V227.865Z" fill="white"/>
<path d="M195.21 249.543H192.409L183.978 233.351L183.933 249.543H181.147V227.865H183.948L192.38 244.028L192.424 227.865H195.21V249.543Z" fill="white"/>
<path d="M199.337 227.865H212.471V230.262H207.268V247.16H212.471V249.543H199.337V247.16H204.423V230.262H199.337V227.865Z" fill="white"/>
<path d="M216.775 249.543V227.865H221.802C223.32 227.88 224.662 228.145 225.856 228.63C227.05 229.115 228.052 229.807 228.863 230.689C229.688 231.571 230.307 232.616 230.75 233.851C231.192 235.086 231.398 236.439 231.413 237.925V239.513C231.398 240.998 231.177 242.366 230.75 243.587C230.322 244.807 229.688 245.866 228.863 246.749C228.037 247.631 227.035 248.308 225.856 248.808C224.676 249.308 223.32 249.543 221.802 249.558H216.775V249.543ZM219.576 230.13V247.293H221.802C222.981 247.278 223.984 247.072 224.839 246.675C225.693 246.278 226.401 245.719 226.961 245.028C227.521 244.337 227.934 243.513 228.214 242.572C228.494 241.631 228.627 240.601 228.642 239.498V237.881C228.627 236.778 228.494 235.763 228.214 234.822C227.934 233.88 227.521 233.071 226.961 232.38C226.401 231.689 225.693 231.145 224.839 230.748C223.984 230.351 222.966 230.145 221.802 230.13H219.576Z" fill="white"/>
<path d="M245.151 243.94H237.899L236.159 249.558H233.403L240.419 227.88H242.734L249.632 249.558H246.891L245.151 243.94ZM238.65 241.542H244.429L241.569 232.13L238.65 241.542Z" fill="white"/>
<path d="M252.227 249.543V227.865H257.253C258.771 227.88 260.113 228.145 261.307 228.63C262.501 229.115 263.503 229.807 264.314 230.689C265.139 231.571 265.758 232.616 266.201 233.851C266.643 235.086 266.849 236.439 266.864 237.925V239.513C266.849 240.998 266.628 242.366 266.201 243.587C265.773 244.807 265.139 245.866 264.314 246.749C263.488 247.631 262.486 248.308 261.307 248.808C260.128 249.308 258.771 249.543 257.253 249.558H252.227V249.543ZM255.027 230.13V247.293H257.253C258.432 247.278 259.435 247.072 260.29 246.675C261.145 246.278 261.852 245.719 262.412 245.028C262.972 244.337 263.385 243.513 263.665 242.572C263.945 241.631 264.078 240.601 264.093 239.498V237.881C264.078 236.778 263.945 235.763 263.665 234.822C263.385 233.88 262.972 233.071 262.412 232.38C261.852 231.689 261.145 231.145 260.29 230.748C259.435 230.351 258.418 230.145 257.253 230.13H255.027Z" fill="white"/>
<path d="M282.18 239.528H273.114V247.205H283.698V249.543H270.358V227.865H283.566V230.218H273.129V237.189H282.195V239.528H282.18Z" fill="white"/>
<path d="M308.698 240.851V249.543H305.941V227.865H312.987C313.96 227.88 314.889 228.042 315.759 228.321C316.628 228.601 317.395 229.027 318.043 229.571C318.692 230.115 319.223 230.792 319.606 231.601C319.989 232.41 320.181 233.321 320.181 234.366C320.181 235.41 319.989 236.322 319.606 237.13C319.223 237.925 318.707 238.601 318.043 239.145C317.38 239.689 316.628 240.101 315.759 240.395C314.889 240.689 313.96 240.837 312.987 240.837H308.698V240.851ZM308.698 238.586H312.973C313.607 238.572 314.196 238.469 314.727 238.278C315.257 238.086 315.729 237.807 316.127 237.454C316.525 237.101 316.835 236.66 317.056 236.145C317.277 235.63 317.395 235.057 317.395 234.395C317.395 233.733 317.277 233.145 317.056 232.616C316.835 232.086 316.525 231.645 316.127 231.277C315.729 230.91 315.272 230.63 314.727 230.424C314.181 230.218 313.592 230.115 312.958 230.115H308.683V238.586H308.698Z" fill="white"/>
<path d="M333.772 243.94H326.519L324.78 249.558H322.023L329.04 227.88H331.354L338.253 249.558H335.511L333.772 243.94ZM327.271 241.542H333.049L330.19 232.13L327.271 241.542Z" fill="white"/>
<path d="M348.321 240.704H343.972V249.543H341.23V227.865H347.598C348.616 227.88 349.574 228.027 350.458 228.292C351.357 228.556 352.139 228.968 352.802 229.498C353.48 230.027 353.996 230.704 354.379 231.513C354.762 232.321 354.954 233.277 354.954 234.366C354.954 235.072 354.851 235.719 354.644 236.307C354.438 236.895 354.158 237.425 353.804 237.895C353.45 238.366 353.023 238.792 352.522 239.16C352.021 239.528 351.475 239.836 350.886 240.101L355.499 249.366L355.485 249.543H352.581L348.321 240.704ZM343.987 238.439H347.687C348.306 238.425 348.881 238.336 349.426 238.145C349.972 237.954 350.458 237.704 350.871 237.351C351.284 236.998 351.608 236.586 351.844 236.072C352.08 235.572 352.197 234.998 352.197 234.336C352.197 233.645 352.08 233.027 351.858 232.513C351.623 231.998 351.313 231.557 350.9 231.204C350.488 230.851 350.001 230.586 349.441 230.41C348.881 230.233 348.262 230.13 347.598 230.13H343.972V238.439H343.987Z" fill="white"/>
<path d="M369.223 243.94H361.971L360.231 249.558H357.475L364.491 227.88H366.805L373.704 249.558H370.962L369.223 243.94ZM362.722 241.542H368.501L365.641 232.13L362.722 241.542Z" fill="white"/>
<path d="M404.675 243.94H397.422L395.683 249.558H392.926L399.943 227.88H402.257L409.156 249.558H406.414L404.675 243.94ZM398.174 241.542H403.952L401.093 232.13L398.174 241.542Z" fill="white"/>
<path d="M443.825 243.028C443.693 244.028 443.442 244.954 443.044 245.793C442.646 246.631 442.145 247.352 441.526 247.955C440.907 248.558 440.17 249.028 439.315 249.352C438.46 249.69 437.516 249.852 436.47 249.852C435.571 249.852 434.76 249.719 434.038 249.469C433.3 249.219 432.652 248.866 432.077 248.425C431.502 247.984 431.016 247.455 430.603 246.852C430.19 246.249 429.851 245.587 429.571 244.866C429.291 244.146 429.099 243.396 428.967 242.616C428.834 241.837 428.76 241.042 428.746 240.234V237.219C428.76 236.41 428.834 235.616 428.967 234.836C429.099 234.057 429.306 233.307 429.571 232.586C429.851 231.865 430.19 231.204 430.603 230.601C431.016 229.983 431.502 229.468 432.077 229.012C432.652 228.571 433.3 228.218 434.023 227.968C434.745 227.718 435.571 227.586 436.47 227.586C437.561 227.586 438.519 227.748 439.374 228.086C440.229 228.424 440.966 228.895 441.585 229.498C442.204 230.101 442.69 230.836 443.073 231.689C443.442 232.542 443.693 233.483 443.811 234.513H441.054C440.966 233.851 440.803 233.248 440.597 232.674C440.391 232.101 440.081 231.615 439.713 231.189C439.344 230.762 438.902 230.424 438.357 230.189C437.826 229.939 437.192 229.821 436.47 229.821C435.806 229.821 435.232 229.924 434.73 230.145C434.229 230.365 433.802 230.645 433.433 231.012C433.065 231.38 432.77 231.807 432.519 232.292C432.269 232.777 432.077 233.292 431.93 233.836C431.782 234.38 431.679 234.939 431.605 235.513C431.546 236.086 431.502 236.63 431.502 237.175V240.234C431.502 240.763 431.532 241.322 431.605 241.895C431.664 242.469 431.782 243.028 431.93 243.572C432.077 244.116 432.269 244.646 432.504 245.131C432.74 245.616 433.05 246.043 433.418 246.425C433.787 246.793 434.214 247.087 434.716 247.307C435.217 247.513 435.792 247.631 436.455 247.631C437.177 247.631 437.811 247.513 438.342 247.293C438.872 247.057 439.329 246.749 439.698 246.337C440.066 245.925 440.361 245.44 440.582 244.881C440.803 244.322 440.951 243.719 441.039 243.057H443.825V243.028Z" fill="white"/>
<path d="M461.618 239.954C461.603 240.734 461.544 241.513 461.411 242.293C461.293 243.087 461.102 243.837 460.836 244.572C460.571 245.307 460.247 245.984 459.849 246.631C459.451 247.263 458.964 247.822 458.404 248.293C457.844 248.763 457.21 249.146 456.488 249.411C455.766 249.675 454.955 249.822 454.07 249.822C453.186 249.822 452.36 249.69 451.653 249.411C450.931 249.131 450.297 248.763 449.737 248.293C449.176 247.822 448.69 247.263 448.292 246.616C447.879 245.969 447.555 245.293 447.29 244.557C447.024 243.822 446.833 243.072 446.7 242.278C446.567 241.498 446.508 240.719 446.494 239.939V237.469C446.508 236.689 446.567 235.91 446.7 235.13C446.818 234.336 447.024 233.586 447.275 232.851C447.54 232.115 447.879 231.424 448.277 230.792C448.675 230.159 449.162 229.586 449.722 229.115C450.282 228.63 450.916 228.262 451.638 227.983C452.36 227.703 453.171 227.571 454.07 227.571C454.97 227.571 455.78 227.703 456.503 227.983C457.225 228.262 457.873 228.63 458.434 229.101C458.994 229.571 459.465 230.13 459.878 230.777C460.276 231.424 460.615 232.101 460.881 232.836C461.146 233.571 461.337 234.336 461.47 235.13C461.588 235.925 461.662 236.704 461.677 237.483V239.954H461.618ZM458.876 237.454C458.861 236.939 458.832 236.395 458.773 235.836C458.714 235.277 458.61 234.719 458.463 234.174C458.316 233.616 458.124 233.101 457.888 232.601C457.652 232.101 457.357 231.66 456.989 231.277C456.635 230.895 456.208 230.586 455.721 230.365C455.235 230.145 454.66 230.027 454.026 230.027C453.392 230.027 452.832 230.145 452.346 230.365C451.859 230.586 451.432 230.895 451.078 231.277C450.724 231.66 450.415 232.101 450.179 232.601C449.943 233.101 449.751 233.63 449.604 234.174C449.457 234.733 449.353 235.277 449.294 235.836C449.235 236.395 449.191 236.925 449.176 237.439V239.939C449.191 240.439 449.221 240.984 449.294 241.542C449.368 242.101 449.471 242.66 449.619 243.219C449.766 243.763 449.958 244.293 450.194 244.807C450.429 245.307 450.724 245.763 451.093 246.146C451.446 246.528 451.874 246.837 452.36 247.057C452.847 247.278 453.422 247.396 454.056 247.396C454.689 247.396 455.264 247.278 455.766 247.057C456.267 246.837 456.679 246.528 457.033 246.146C457.387 245.763 457.682 245.322 457.918 244.822C458.153 244.322 458.345 243.793 458.478 243.248C458.625 242.704 458.728 242.145 458.773 241.572C458.832 241.013 458.861 240.469 458.876 239.954V237.454Z" fill="white"/>
<path d="M468.236 227.865L471.774 238.704L475.592 227.865H479.026V249.543H476.343V240.895L476.565 231.851L472.555 243.513H470.978L467.293 232.16L467.514 240.895V249.543H464.831V227.865H468.236Z" fill="white"/>
<path d="M496.567 227.865L496.597 242.543C496.582 243.557 496.391 244.499 496.051 245.381C495.712 246.263 495.211 247.043 494.592 247.69C493.958 248.352 493.221 248.866 492.352 249.249C491.482 249.631 490.538 249.822 489.507 249.822C488.445 249.822 487.487 249.631 486.632 249.263C485.763 248.881 485.025 248.366 484.406 247.705C483.787 247.043 483.301 246.278 482.962 245.381C482.608 244.499 482.431 243.543 482.431 242.528L482.461 227.851H485.084L485.143 242.528C485.158 243.175 485.261 243.793 485.453 244.381C485.645 244.984 485.925 245.499 486.293 245.954C486.662 246.41 487.104 246.778 487.649 247.057C488.195 247.337 488.814 247.469 489.521 247.469C490.229 247.469 490.848 247.337 491.393 247.057C491.924 246.778 492.381 246.41 492.75 245.954C493.118 245.499 493.383 244.969 493.575 244.366C493.767 243.778 493.87 243.145 493.885 242.513L493.929 227.836H496.567V227.865Z" fill="white"/>
<path d="M514.271 249.543H511.47L503.039 233.351L502.994 249.543H500.208V227.865H503.009L511.441 244.028L511.485 227.865H514.271V249.543Z" fill="white"/>
<path d="M518.384 227.865H531.518V230.262H526.314V247.16H531.518V249.543H518.384V247.16H523.469V230.262H518.384V227.865Z" fill="white"/>
<path d="M535.822 249.543V227.865H540.848C542.367 227.88 543.708 228.145 544.902 228.63C546.096 229.115 547.098 229.807 547.909 230.689C548.735 231.571 549.354 232.616 549.796 233.851C550.238 235.086 550.444 236.439 550.459 237.925V239.513C550.444 240.998 550.223 242.366 549.796 243.587C549.368 244.807 548.735 245.866 547.909 246.749C547.084 247.631 546.081 248.308 544.902 248.808C543.723 249.308 542.367 249.543 540.848 249.558H535.822V249.543ZM538.637 230.13V247.293H540.863C542.042 247.278 543.045 247.072 543.9 246.675C544.755 246.278 545.462 245.719 546.022 245.028C546.582 244.337 546.995 243.513 547.275 242.572C547.555 241.631 547.688 240.601 547.703 239.498V237.881C547.688 236.778 547.555 235.763 547.275 234.822C546.995 233.88 546.582 233.071 546.022 232.38C545.462 231.689 544.755 231.145 543.9 230.748C543.045 230.351 542.028 230.145 540.863 230.13H538.637Z" fill="white"/>
<path d="M564.198 243.94H556.945L555.206 249.558H552.449L559.466 227.88H561.78L568.679 249.558H565.937L564.198 243.94ZM557.697 241.542H563.475L560.616 232.13L557.697 241.542Z" fill="white"/>
<path d="M571.273 249.543V227.865H576.3C577.818 227.88 579.159 228.145 580.353 228.63C581.547 229.115 582.55 229.807 583.36 230.689C584.186 231.571 584.805 232.616 585.247 233.851C585.689 235.086 585.896 236.439 585.91 237.925V239.513C585.896 240.998 585.675 242.366 585.247 243.587C584.82 244.807 584.186 245.866 583.36 246.749C582.535 247.631 581.532 248.308 580.353 248.808C579.174 249.308 577.818 249.543 576.3 249.558H571.273V249.543ZM574.074 230.13V247.293H576.3C577.479 247.278 578.481 247.072 579.336 246.675C580.191 246.278 580.899 245.719 581.459 245.028C582.019 244.337 582.432 243.513 582.712 242.572C582.992 241.631 583.124 240.601 583.139 239.498V237.881C583.124 236.778 582.992 235.763 582.712 234.822C582.432 233.88 582.019 233.071 581.459 232.38C580.899 231.689 580.191 231.145 579.336 230.748C578.481 230.351 577.464 230.145 576.3 230.13H574.074Z" fill="white"/>
<path d="M601.24 239.528H592.175V247.205H602.759V249.543H589.418V227.865H602.626V230.218H592.19V237.189H601.255V239.528H601.24Z" fill="white"/>
<path d="M652.376 239.572C647.865 249.69 638.402 254.911 635.645 254.911C632.653 254.911 622.217 248.175 618.915 239.572C615.642 231.027 621.17 218.438 635.645 226.424C650.342 218.777 656.105 231.204 652.376 239.572Z" fill="#6814CA"/>
</g>
<defs>
<clipPath id="clip0_50_44">
<rect width="680" height="272" fill="white"/>
</clipPath>
</defs>
</svg>
