<svg width="48" height="42" viewBox="0 0 48 42" fill="none" xmlns="http://www.w3.org/2000/svg">
<path d="M11.2301 0.663405C7.0099 1.19726 3.50455 3.6356 1.70325 7.29462C0.883671 8.95501 0.534329 10.3227 0.4621 12.1934C0.355967 15.092 1.13575 17.6349 2.85598 19.9424C3.20533 20.4115 4.94177 22.2101 7.89579 25.1647C10.3707 27.6501 12.4403 29.6825 12.489 29.6825C12.5303 29.6825 18.8673 23.3998 26.5604 15.7244L40.5433 1.77373L39.7975 1.47371C36.2111 0.0398073 31.982 0.445735 28.7847 2.52673C28.3867 2.77821 27.8915 3.13409 27.6645 3.31204C27.4448 3.48999 23.9321 6.94753 19.874 10.9963L12.4816 18.3555L10.8587 16.7113C9.42293 15.2627 9.19445 14.995 8.93501 14.4611C8.35128 13.2625 8.34244 12.1286 8.9188 10.9065C9.46273 9.76528 10.6552 8.8991 11.9627 8.70497C13.002 8.5432 14.2357 8.89179 15.014 9.55506L15.3472 9.83885L18.2039 6.98139L21.068 4.12378L20.5492 3.66204C19.0471 2.3105 17.0188 1.29724 14.9256 0.860451C14.1266 0.695737 11.9274 0.575165 11.2301 0.663405Z" fill="#6814CA"/>
<path d="M40.729 12.9228L35.2912 18.3482L33.8717 16.9319L32.4522 15.5156L29.6279 18.3334C28.0772 19.8805 26.8124 21.1836 26.8124 21.2233C26.8124 21.2718 27.4374 21.9278 28.1921 22.6808L29.5719 24.0572L23.8746 29.7414L18.17 35.4329L21.0341 38.2831L23.8908 41.1405L33.9616 31.1003C39.4967 25.578 44.2594 20.785 44.5366 20.4526C47.1574 17.3187 48.0345 13.1817 46.898 9.23881C46.7432 8.72113 46.2657 7.49756 46.2082 7.49756C46.1831 7.49756 43.7155 9.9344 40.729 12.9228Z" fill="#6814CA"/>
</svg>
