<svg width="320" height="180" viewBox="0 0 320 180" fill="none" xmlns="http://www.w3.org/2000/svg">
<rect width="320" height="180" fill="#0D0D0D"/>
<path d="M123.698 78.9836H128.87V86.1058H136.06V78.9836H141.232V98.4538H136.06V90.8339H128.87V98.4538H123.698V78.9836Z" fill="#9164CC"/>
<path d="M157.393 97.4616C157.157 97.597 156.861 97.7482 156.501 97.912C156.092 98.0968 155.67 98.2536 155.24 98.3814C154.702 98.5377 154.155 98.6639 153.603 98.7594C152.966 98.8691 152.32 98.9229 151.673 98.92C149.15 98.92 147.212 98.2827 145.858 97.008C144.504 95.7333 143.832 93.9483 143.843 91.653C143.843 90.7344 143.991 89.8218 144.281 88.9503C144.563 88.0826 145.014 87.2795 145.609 86.5878C146.232 85.8754 147 85.3032 147.86 84.9088C148.857 84.4659 149.94 84.2507 151.03 84.2788C151.934 84.2733 152.831 84.4368 153.676 84.7608C154.498 85.0774 155.237 85.576 155.839 86.2192C156.485 86.9292 156.978 87.7645 157.286 88.6731C157.657 89.7898 157.834 90.9617 157.81 92.1381V93.0831H148.507C148.531 93.3354 148.596 93.5822 148.699 93.8139C148.824 94.0932 149.015 94.3384 149.254 94.5289C149.565 94.7776 149.922 94.9618 150.304 95.0707C150.833 95.2185 151.38 95.2875 151.928 95.2755C152.704 95.2862 153.477 95.18 154.221 94.9605C154.786 94.8005 155.33 94.5742 155.842 94.2864L157.393 97.4616ZM153.417 90.1347C153.414 89.8842 153.365 89.6364 153.272 89.4039C153.169 89.1433 153.016 88.9056 152.821 88.7046C152.603 88.4794 152.345 88.2958 152.061 88.1628C151.717 88.0088 151.343 87.9345 150.967 87.9454C150.594 87.9373 150.225 88.0115 149.885 88.1628C149.598 88.291 149.34 88.4752 149.125 88.7046C148.937 88.9083 148.788 89.1455 148.687 89.4039C148.593 89.6364 148.544 89.8842 148.542 90.1347H153.417Z" fill="#9164CC"/>
<path d="M159.292 91.6811L167.154 80.0608H172.032V91.3H173.874V95.2438H172.032V98.4536H167.504V95.2438H159.305L159.292 91.6811ZM167.491 91.3V85.8127L163.764 91.3H167.491Z" fill="#9164CC"/>
<path d="M176.472 84.7323H181.237L181.411 86.4553C181.803 85.9081 182.294 85.4382 182.858 85.0693C183.484 84.6798 184.212 84.4867 184.949 84.5149C185.286 84.511 185.623 84.531 185.958 84.5748C186.212 84.6071 186.463 84.6651 186.705 84.748L186.075 88.9533C185.606 88.8363 185.126 88.7771 184.643 88.7769C182.499 88.7769 181.426 89.9539 181.426 92.308V98.4694H176.472V84.7323Z" fill="#9164CC"/>
<path d="M189.597 88.5281H187.582V84.7481H189.597V80.9082H194.536V84.7323H197.916V88.5123H194.536V93.357C194.536 94.4868 195.072 95.0517 196.144 95.0517C196.462 95.0497 196.776 94.9799 197.065 94.847C197.355 94.7163 197.634 94.5603 197.897 94.3808L199.824 97.4142C199.199 97.9033 198.5 98.2883 197.752 98.5545C197.001 98.8244 196.21 98.9629 195.412 98.964C194.46 98.9912 193.512 98.8318 192.621 98.4947C191.921 98.2219 191.303 97.7752 190.824 97.1969C190.362 96.6094 190.039 95.9258 189.878 95.1966C189.686 94.364 189.593 93.5119 189.6 92.6577L189.597 88.5281Z" fill="#9164CC"/>
<path d="M210.35 97.304C210.287 97.3827 210.177 97.5024 210.035 97.6662C209.859 97.85 209.66 98.0099 209.442 98.1419C209.169 98.3093 208.878 98.4466 208.575 98.5514C208.2 98.674 207.808 98.7326 207.414 98.7246C206.866 98.7341 206.322 98.6267 205.819 98.4096C205.328 98.1889 204.889 97.8668 204.532 97.4646C204.153 97.036 203.865 96.5357 203.684 95.9936C203.47 95.3712 203.364 94.7173 203.368 94.0595C203.35 93.3002 203.503 92.5467 203.816 91.8545C204.088 91.2763 204.477 90.7604 204.958 90.3393C205.396 89.9548 205.906 89.6604 206.459 89.4731C206.95 89.2981 207.467 89.2055 207.988 89.199C208.505 89.1781 209.021 89.2572 209.508 89.4321C209.871 89.5896 210.139 89.7062 210.344 89.7818V85.46H212.107V97.515C212.107 97.8069 212.113 98.1156 212.126 98.4411H210.413L210.35 97.304ZM210.35 91.4072C210.124 91.2461 209.884 91.1068 209.631 90.9914C209.157 90.7915 208.644 90.7011 208.13 90.7268C207.725 90.7225 207.324 90.8018 206.951 90.9599C206.594 91.1142 206.272 91.3392 206.005 91.6214C205.725 91.9254 205.51 92.2834 205.374 92.6735C205.218 93.1241 205.142 93.5985 205.15 94.0752C205.147 94.4856 205.199 94.8944 205.305 95.2911C205.399 95.6525 205.562 95.9925 205.784 96.2928C205.997 96.5801 206.277 96.8105 206.601 96.9638C206.97 97.1345 207.373 97.2175 207.78 97.2063C208.185 97.2181 208.586 97.1317 208.95 96.9543C209.255 96.8026 209.523 96.5878 209.738 96.3243C209.938 96.076 210.09 95.793 210.186 95.4896C210.278 95.2163 210.327 94.9304 210.331 94.6422L210.35 91.4072Z" fill="#C29FD8"/>
<path d="M222.8 97.1307C222.653 97.2878 222.497 97.4371 222.333 97.578C222.086 97.7854 221.813 97.962 221.523 98.1041C221.15 98.2883 220.759 98.435 220.356 98.5419C219.857 98.6703 219.342 98.7318 218.827 98.7246C218.167 98.7326 217.512 98.6139 216.897 98.375C216.332 98.1543 215.82 97.8161 215.396 97.3827C214.972 96.9418 214.644 96.4186 214.431 95.8455C214.197 95.2104 214.081 94.5377 214.09 93.861C214.08 93.2274 214.187 92.5974 214.406 92.0025C214.723 91.1506 215.295 90.4174 216.046 89.9032C216.796 89.389 217.687 89.1188 218.597 89.1297C219.299 89.1079 219.995 89.2628 220.621 89.5802C221.164 89.8647 221.634 90.2699 221.996 90.7646C222.36 91.2766 222.628 91.851 222.784 92.4593C222.954 93.1072 223.038 93.7742 223.037 94.4438H215.891C215.9 94.8276 215.989 95.2053 216.153 95.5526C216.312 95.8837 216.533 96.181 216.805 96.4283C217.083 96.678 217.404 96.8764 217.751 97.0142C218.104 97.157 218.481 97.2298 218.861 97.2284C219.515 97.2538 220.164 97.1198 220.754 96.8378C221.152 96.6481 221.515 96.3913 221.826 96.0786L222.8 97.1307ZM221.223 93.1397C221.188 92.4768 220.928 91.8456 220.486 91.3505C220.247 91.0979 219.956 90.9007 219.633 90.7728C219.31 90.6449 218.962 90.5894 218.616 90.6102C218.231 90.6048 217.849 90.6777 217.493 90.8244C217.178 90.9565 216.891 91.1479 216.648 91.3883C216.415 91.62 216.229 91.895 216.102 92.1978C215.972 92.4964 215.899 92.8171 215.888 93.1428L221.223 93.1397Z" fill="#C29FD8"/>
<path d="M223.5 89.4038H225.509L228.347 96.4693L231.151 89.4038H233.043L229.164 98.4538H227.411L223.5 89.4038Z" fill="#C29FD8"/>
<path d="M234.667 96.17C235.002 96.5022 235.398 96.7664 235.834 96.9481C236.334 97.152 236.87 97.2516 237.411 97.241C237.912 97.2575 238.411 97.1606 238.871 96.9575C239.047 96.8877 239.198 96.7653 239.302 96.6069C239.407 96.4486 239.46 96.2619 239.454 96.0724C239.46 95.886 239.416 95.7013 239.328 95.5369C239.222 95.3692 239.074 95.2323 238.899 95.14C238.646 95.0046 238.378 94.8989 238.101 94.825C237.77 94.7273 237.357 94.6202 236.865 94.51C236.51 94.4296 236.161 94.3243 235.821 94.195C235.488 94.0717 235.177 93.8974 234.897 93.6784C234.625 93.4674 234.4 93.2025 234.235 92.9003C234.057 92.5619 233.969 92.1833 233.98 91.801C233.974 91.3928 234.083 90.9912 234.295 90.6418C234.5 90.3079 234.775 90.023 235.102 89.807C235.453 89.5748 235.838 89.4004 236.244 89.2904C236.672 89.1726 237.114 89.1133 237.559 89.114C238.231 89.1031 238.9 89.2097 239.536 89.429C240.068 89.6197 240.56 89.907 240.987 90.2764L240.041 91.4828C239.737 91.2164 239.391 91.0034 239.016 90.8528C238.559 90.6772 238.073 90.5916 237.584 90.6008C237.121 90.5811 236.66 90.674 236.241 90.8717C236.078 90.9562 235.943 91.086 235.853 91.2454C235.763 91.4047 235.721 91.5868 235.733 91.7695C235.738 91.9665 235.806 92.1567 235.927 92.3125C236.048 92.4683 236.215 92.5815 236.405 92.6357C236.977 92.8605 237.566 93.0385 238.167 93.1681C238.574 93.2646 238.974 93.3855 239.366 93.5303C239.716 93.6544 240.045 93.8318 240.34 94.0564C240.618 94.2652 240.844 94.5345 241.002 94.8439C241.175 95.1941 241.26 95.5813 241.248 95.9716C241.256 96.3921 241.147 96.8065 240.933 97.1686C240.721 97.5159 240.435 97.8118 240.094 98.0348C239.724 98.277 239.316 98.4549 238.886 98.5609C238.422 98.6784 237.944 98.7366 237.464 98.7341C235.749 98.7341 234.463 98.2742 233.607 97.3544L234.667 96.17Z" fill="#C29FD8"/>
<path d="M104.888 74.75C103.654 74.7471 102.432 74.9883 101.292 75.4597C100.152 75.9312 99.1169 76.6236 98.2464 77.4968L87.1586 88.5565L84.9512 86.3515C84.6228 86.0713 84.356 85.7262 84.1676 85.338C83.9791 84.9498 83.8731 84.5269 83.8562 84.0958C83.8393 83.6647 83.9118 83.2348 84.0692 82.8331C84.2266 82.4314 84.4656 82.0665 84.771 81.7614C85.0764 81.4564 85.4416 81.2177 85.8438 81.0605C86.246 80.9032 86.6764 80.8308 87.1079 80.8477C87.5395 80.8646 87.9629 80.9705 88.3515 81.1587C88.7401 81.347 89.0856 81.6135 89.3661 81.9415L93.781 77.5315C92.011 75.8135 89.6353 74.8603 87.1674 74.8779C84.6996 74.8955 82.3377 75.8824 80.5924 77.6253C78.8471 79.3683 77.8585 81.7273 77.8403 84.1924C77.8222 86.6576 78.7759 89.0308 80.4953 90.7993L87.1366 97.4363L108.896 75.7013C107.647 75.0909 106.278 74.7659 104.888 74.75V74.75Z" fill="#9164CC"/>
<path d="M113.352 80.105L104.888 88.5564L102.68 86.3514L98.2653 90.7614L100.473 92.9664L91.5894 101.84L96.0043 106.25L111.51 90.7677C112.881 89.3977 113.795 87.6373 114.124 85.7282C114.454 83.8191 114.184 81.8548 113.352 80.105V80.105Z" fill="#9164CC"/>
</svg>
